<svg width="830" height="135" viewBox="0 0 830 135" fill="none" xmlns="http://www.w3.org/2000/svg">
<g clip-path="url(#clip0_375_6860)">
<rect width="830" height="135" rx="14" fill="#162C30"/>
<rect width="830" height="135" rx="14" fill="#0D191C" fill-opacity="0.4"/>
<rect width="830" height="135" rx="14" fill="url(#paint0_radial_375_6860)" fill-opacity="0.2"/>
<rect width="830" height="135" rx="14" fill="url(#paint1_radial_375_6860)" fill-opacity="0.2"/>
<path fill-rule="evenodd" clip-rule="evenodd" d="M39.0098 30.8346L28 30.835V25.123H39.0098V30.835H44.754V41.8771H39.0098V36.5471C36.093 36.5979 33.7442 38.9647 33.7442 41.8771H28C28 35.8103 32.9205 30.8862 39.0098 30.835V30.8346Z" fill="#A0EFFF"/>
<path d="M65.4379 25.368L65.1579 28.672H58.0459V32.004H63.8979V35.224H58.0459V38.696H65.5779V42H54.3219V25.368H65.4379ZM78.3844 24.248V42H74.8004V41.244C73.9044 41.916 72.8497 42.252 71.6364 42.252C70.6284 42.252 69.6951 42 68.8364 41.496C67.9964 40.992 67.3244 40.2733 66.8204 39.34C66.3164 38.388 66.0644 37.268 66.0644 35.98C66.0644 34.6547 66.3164 33.5067 66.8204 32.536C67.3431 31.5467 68.0711 30.7813 69.0044 30.24C69.9564 29.6987 71.0671 29.428 72.3364 29.428C72.7844 29.428 73.2231 29.4653 73.6524 29.54C74.0817 29.6147 74.4644 29.7267 74.8004 29.876V24.416L78.3844 24.248ZM74.8004 32.872C74.5764 32.7787 74.2871 32.6947 73.9324 32.62C73.5777 32.5453 73.2324 32.508 72.8964 32.508C72.2617 32.508 71.7017 32.648 71.2164 32.928C70.7497 33.1893 70.3857 33.572 70.1244 34.076C69.8817 34.58 69.7604 35.1773 69.7604 35.868C69.7604 36.54 69.8724 37.128 70.0964 37.632C70.3204 38.1173 70.6471 38.5 71.0764 38.78C71.5244 39.0413 72.0377 39.172 72.6164 39.172C73.4564 39.172 74.1844 38.9573 74.8004 38.528V32.872ZM91.7072 29.596V42H88.1232V40.964C87.5445 41.412 86.9565 41.7387 86.3592 41.944C85.7618 42.1493 85.1178 42.252 84.4272 42.252C83.1578 42.252 82.1312 41.8973 81.3472 41.188C80.5632 40.46 80.1712 39.3307 80.1712 37.8V29.764L83.7552 29.596V37.044C83.7552 37.772 83.9325 38.2947 84.2872 38.612C84.6418 38.9293 85.1272 39.088 85.7432 39.088C86.1538 39.088 86.5645 39.0227 86.9752 38.892C87.3858 38.7427 87.7685 38.556 88.1232 38.332V29.764L91.7072 29.596ZM103.379 30.52L102.595 33.768C102.277 33.4507 101.857 33.1893 101.335 32.984C100.812 32.7787 100.271 32.676 99.7106 32.676C99.0946 32.676 98.5346 32.8067 98.0306 33.068C97.5452 33.3107 97.1626 33.6653 96.8826 34.132C96.6212 34.5987 96.4906 35.1587 96.4906 35.812C96.4906 36.484 96.6306 37.0627 96.9106 37.548C97.1906 38.0333 97.5919 38.3973 98.1146 38.64C98.6559 38.8827 99.2812 39.004 99.9906 39.004C100.625 39.004 101.223 38.9107 101.783 38.724C102.361 38.5373 102.875 38.2947 103.323 37.996L103.463 41.188C102.94 41.5053 102.343 41.7667 101.671 41.972C100.999 42.1587 100.243 42.252 99.4026 42.252C98.2266 42.252 97.1346 42 96.1266 41.496C95.1186 40.992 94.3066 40.264 93.6906 39.312C93.0932 38.3413 92.7946 37.1747 92.7946 35.812C92.7946 34.58 93.0839 33.488 93.6626 32.536C94.2412 31.5653 95.0252 30.8093 96.0146 30.268C97.0039 29.708 98.1052 29.428 99.3186 29.428C100.215 29.428 100.999 29.5307 101.671 29.736C102.361 29.9227 102.931 30.184 103.379 30.52ZM115.106 42H111.718V41.048C111.27 41.4027 110.729 41.692 110.094 41.916C109.46 42.14 108.76 42.252 107.994 42.252C106.632 42.252 105.586 41.9253 104.858 41.272C104.149 40.6187 103.794 39.7133 103.794 38.556C103.794 37.3053 104.233 36.3627 105.11 35.728C105.988 35.0747 107.173 34.748 108.666 34.748C109.208 34.748 109.749 34.7947 110.29 34.888C110.832 34.9813 111.27 35.1027 111.606 35.252V34.58C111.606 33.852 111.373 33.3387 110.906 33.04C110.458 32.7227 109.749 32.564 108.778 32.564C108.088 32.564 107.378 32.648 106.65 32.816C105.941 32.984 105.372 33.1987 104.942 33.46L104.802 30.324C105.381 30.044 106.062 29.8293 106.846 29.68C107.649 29.512 108.47 29.428 109.31 29.428C111.177 29.428 112.605 29.8293 113.594 30.632C114.602 31.416 115.106 32.6573 115.106 34.356V42ZM111.606 39.144V37.38C111.345 37.2493 111.018 37.1467 110.626 37.072C110.253 36.9973 109.889 36.96 109.534 36.96C108.825 36.96 108.284 37.0907 107.91 37.352C107.537 37.5947 107.35 37.9773 107.35 38.5C107.35 38.9853 107.509 39.34 107.826 39.564C108.144 39.7693 108.61 39.872 109.226 39.872C109.656 39.872 110.094 39.8067 110.542 39.676C110.99 39.5267 111.345 39.3493 111.606 39.144ZM135.659 29.68L132.019 42H128.211L126.755 37.66C126.493 36.764 126.279 36.0453 126.111 35.504C125.943 34.944 125.803 34.4307 125.691 33.964H125.551C125.457 34.4307 125.317 34.944 125.131 35.504C124.963 36.0453 124.748 36.764 124.487 37.66L123.031 42H119.223L115.583 29.764L119.195 29.596L120.847 35.476C120.94 35.868 121.033 36.3347 121.127 36.876C121.239 37.3987 121.323 37.884 121.379 38.332H121.519C121.575 37.884 121.668 37.3987 121.799 36.876C121.929 36.3347 122.051 35.868 122.163 35.476L123.787 30.604H127.595L129.219 35.476C129.331 35.868 129.452 36.3347 129.583 36.876C129.713 37.3987 129.807 37.884 129.863 38.332H130.003C130.059 37.884 130.133 37.3987 130.227 36.876C130.339 36.3347 130.441 35.868 130.535 35.476L132.131 29.68H135.659ZM144.231 29.68L143.979 32.76H140.703V37.436C140.703 38.052 140.852 38.4907 141.151 38.752C141.449 38.9947 141.888 39.116 142.467 39.116C142.784 39.116 143.083 39.0693 143.363 38.976C143.661 38.864 143.913 38.7333 144.119 38.584L144.259 41.608C143.605 42.0373 142.719 42.252 141.599 42.252C140.049 42.252 138.92 41.8693 138.211 41.104C137.501 40.3387 137.147 39.2467 137.147 37.828V32.76H135.467V29.68H137.147V27.104L140.703 26.348V29.68H144.231ZM155.926 42H152.538V41.048C152.09 41.4027 151.549 41.692 150.914 41.916C150.28 42.14 149.58 42.252 148.814 42.252C147.452 42.252 146.406 41.9253 145.678 41.272C144.969 40.6187 144.614 39.7133 144.614 38.556C144.614 37.3053 145.053 36.3627 145.93 35.728C146.808 35.0747 147.993 34.748 149.486 34.748C150.028 34.748 150.569 34.7947 151.11 34.888C151.652 34.9813 152.09 35.1027 152.426 35.252V34.58C152.426 33.852 152.193 33.3387 151.726 33.04C151.278 32.7227 150.569 32.564 149.598 32.564C148.908 32.564 148.198 32.648 147.47 32.816C146.761 32.984 146.192 33.1987 145.762 33.46L145.622 30.324C146.201 30.044 146.882 29.8293 147.666 29.68C148.469 29.512 149.29 29.428 150.13 29.428C151.997 29.428 153.425 29.8293 154.414 30.632C155.422 31.416 155.926 32.6573 155.926 34.356V42ZM152.426 39.144V37.38C152.165 37.2493 151.838 37.1467 151.446 37.072C151.073 36.9973 150.709 36.96 150.354 36.96C149.645 36.96 149.104 37.0907 148.73 37.352C148.357 37.5947 148.17 37.9773 148.17 38.5C148.17 38.9853 148.329 39.34 148.646 39.564C148.964 39.7693 149.43 39.872 150.046 39.872C150.476 39.872 150.914 39.8067 151.362 39.676C151.81 39.5267 152.165 39.3493 152.426 39.144ZM170.029 35.644C170.029 36.9507 169.749 38.108 169.189 39.116C168.629 40.1053 167.827 40.88 166.781 41.44C165.736 41.9813 164.485 42.252 163.029 42.252C162.021 42.252 161.06 42.1493 160.145 41.944C159.231 41.72 158.419 41.44 157.709 41.104V24.416L161.293 24.248V30.436C161.797 30.0813 162.301 29.8293 162.805 29.68C163.328 29.512 163.897 29.428 164.513 29.428C165.559 29.428 166.492 29.68 167.313 30.184C168.153 30.688 168.816 31.4067 169.301 32.34C169.787 33.2547 170.029 34.356 170.029 35.644ZM166.333 35.812C166.333 35.14 166.221 34.5613 165.997 34.076C165.773 33.572 165.437 33.1893 164.989 32.928C164.56 32.648 164.019 32.508 163.365 32.508C162.563 32.508 161.872 32.7227 161.293 33.152V38.836C161.536 38.9293 161.816 39.0133 162.133 39.088C162.469 39.144 162.815 39.172 163.169 39.172C163.823 39.172 164.383 39.0413 164.849 38.78C165.316 38.5 165.68 38.108 165.941 37.604C166.203 37.0813 166.333 36.484 166.333 35.812ZM174.672 24.248V42H171.088V24.416L174.672 24.248ZM187.402 36.708H179.506C179.618 37.212 179.842 37.6507 180.178 38.024C180.533 38.3787 180.981 38.6493 181.522 38.836C182.082 39.0227 182.736 39.116 183.482 39.116C184.117 39.116 184.798 39.032 185.526 38.864C186.254 38.6773 186.852 38.444 187.318 38.164L187.458 41.216C186.973 41.552 186.32 41.8133 185.498 42C184.696 42.168 183.94 42.252 183.23 42.252C181.644 42.252 180.281 41.9907 179.142 41.468C178.022 40.9267 177.173 40.1707 176.594 39.2C176.034 38.2293 175.754 37.0907 175.754 35.784C175.754 34.496 176.016 33.3853 176.538 32.452C177.08 31.5 177.817 30.7627 178.75 30.24C179.702 29.6987 180.766 29.428 181.942 29.428C183.025 29.428 183.986 29.6427 184.826 30.072C185.685 30.5013 186.348 31.1267 186.814 31.948C187.3 32.7507 187.542 33.7213 187.542 34.86C187.542 35.1027 187.524 35.4013 187.486 35.756C187.468 36.092 187.44 36.4093 187.402 36.708ZM181.97 32.004C181.242 32.004 180.645 32.2467 180.178 32.732C179.73 33.2173 179.46 33.8613 179.366 34.664H184.21C184.21 34.6267 184.21 34.5707 184.21 34.496C184.21 34.4027 184.21 34.3373 184.21 34.3C184.21 33.6093 184.005 33.0587 183.594 32.648C183.202 32.2187 182.661 32.004 181.97 32.004Z" fill="#A0EFFF"/>
<path d="M48.4377 78H43.5601L41.8427 73.0194H34.6637L32.9119 78H28.2748L35.6942 57.5966H41.0183L48.4377 78ZM40.6748 69.4127L39.0261 64.7756C38.8658 64.3176 38.7284 63.894 38.6139 63.5047C38.5223 63.0925 38.4307 62.6803 38.3391 62.2681H38.1673C38.0757 62.6803 37.9727 63.0925 37.8582 63.5047C37.7666 63.894 37.6407 64.3176 37.4804 64.7756L35.7972 69.4127H40.6748ZM64.2568 78H59.8601V68.9662C59.8601 68.0731 59.6426 67.4319 59.2075 67.0426C58.7724 66.6533 58.177 66.4587 57.4214 66.4587C56.9176 66.4587 56.4023 66.5503 55.8756 66.7335C55.349 66.8938 54.8452 67.1228 54.3643 67.4205V78H49.9676V62.9894L54.3643 62.7833V64.1917C55.0971 63.6421 55.8413 63.2413 56.597 62.9894C57.3756 62.7146 58.1885 62.5772 59.0358 62.5772C60.6158 62.5772 61.8753 63.0238 62.8142 63.9169C63.7759 64.787 64.2568 66.161 64.2568 68.0388V78ZM86.6847 78H82.5284V76.8321C81.9788 77.2672 81.3147 77.6222 80.5362 77.897C79.7576 78.1717 78.8989 78.3091 77.96 78.3091C76.2883 78.3091 75.006 77.9084 74.1129 77.1069C73.2427 76.3054 72.8076 75.1948 72.8076 73.7751C72.8076 72.2408 73.3457 71.0844 74.422 70.3058C75.4983 69.5043 76.9524 69.1036 78.7844 69.1036C79.4484 69.1036 80.1125 69.1608 80.7766 69.2753C81.4407 69.3898 81.9788 69.5387 82.391 69.7219V68.8975C82.391 68.0044 82.1048 67.3747 81.5323 67.0083C80.9827 66.619 80.1125 66.4243 78.9218 66.4243C78.0745 66.4243 77.2043 66.5274 76.3112 66.7335C75.441 66.9396 74.7426 67.2029 74.2159 67.5235L74.0442 63.6764C74.7541 63.3329 75.5899 63.0696 76.5517 62.8864C77.5363 62.6803 78.5439 62.5772 79.5744 62.5772C81.8643 62.5772 83.6161 63.0696 84.8298 64.0543C86.0664 65.016 86.6847 66.5388 86.6847 68.6227V78ZM82.391 74.4964V72.3324C82.0704 72.1721 81.6697 72.0462 81.1888 71.9546C80.7308 71.863 80.2843 71.8172 79.8492 71.8172C78.979 71.8172 78.3149 71.9775 77.8569 72.298C77.3989 72.5957 77.1699 73.0652 77.1699 73.7064C77.1699 74.3017 77.3646 74.7368 77.7539 75.0116C78.1432 75.2635 78.7157 75.3895 79.4713 75.3895C79.998 75.3895 80.5362 75.3093 81.0857 75.149C81.6353 74.9658 82.0704 74.7483 82.391 74.4964ZM112.584 62.8864L108.119 78H103.447L101.661 72.6759C101.341 71.5767 101.077 70.6951 100.871 70.031C100.665 69.344 100.493 68.7143 100.356 68.1418H100.184C100.07 68.7143 99.8979 69.344 99.6689 70.031C99.4628 70.6951 99.1995 71.5767 98.8789 72.6759L97.0927 78H92.4212L87.9558 62.9894L92.3869 62.7833L94.4135 69.9967C94.528 70.4775 94.6425 71.05 94.757 71.7141C94.8944 72.3553 94.9974 72.9507 95.0661 73.5003H95.2379C95.3066 72.9507 95.421 72.3553 95.5813 71.7141C95.7416 71.05 95.8905 70.4775 96.0279 69.9967L98.0201 64.0199H102.692L104.684 69.9967C104.821 70.4775 104.97 71.05 105.13 71.7141C105.291 72.3553 105.405 72.9507 105.474 73.5003H105.646C105.714 72.9507 105.806 72.3553 105.92 71.7141C106.058 71.05 106.184 70.4775 106.298 69.9967L108.256 62.8864H112.584ZM137.767 78H133.37V68.9662C133.37 68.8517 133.359 68.7486 133.336 68.657C133.313 68.5654 133.29 68.4738 133.267 68.3822C133.198 67.6953 132.969 67.2029 132.58 66.9052C132.191 66.6075 131.687 66.4587 131.069 66.4587C131.046 66.4587 131.012 66.4701 130.966 66.493C130.92 66.493 130.886 66.493 130.863 66.493C130.428 66.5159 129.97 66.6075 129.489 66.7678C129.031 66.9281 128.584 67.1457 128.149 67.4205C128.172 67.6266 128.183 67.8327 128.183 68.0388C128.206 68.2449 128.218 68.4624 128.218 68.6914V78H123.855V68.9662C123.855 68.8517 123.844 68.7486 123.821 68.657C123.798 68.5654 123.775 68.4738 123.752 68.3822C123.684 67.6953 123.455 67.2029 123.065 66.9052C122.676 66.6075 122.172 66.4587 121.554 66.4587C121.119 66.4587 120.638 66.5503 120.111 66.7335C119.608 66.8938 119.138 67.1228 118.703 67.4205V78H114.306V62.9894L118.703 62.7833V64.1917C119.207 63.8024 119.711 63.4932 120.214 63.2642C120.741 63.0123 121.256 62.852 121.76 62.7833C122.356 62.6459 122.985 62.6116 123.649 62.6803C124.474 62.7261 125.218 62.9207 125.882 63.2642C126.546 63.6077 127.073 64.123 127.462 64.8099C128.264 64.0314 129.088 63.4703 129.935 63.1268C130.805 62.7604 131.687 62.5772 132.58 62.5772C134.114 62.5772 135.362 63.0238 136.324 63.9169C137.286 64.787 137.767 66.161 137.767 68.0388V78ZM153.648 78H149.492V76.8321C148.942 77.2672 148.278 77.6222 147.499 77.897C146.721 78.1717 145.862 78.3091 144.923 78.3091C143.252 78.3091 141.969 77.9084 141.076 77.1069C140.206 76.3054 139.771 75.1948 139.771 73.7751C139.771 72.2408 140.309 71.0844 141.385 70.3058C142.462 69.5043 143.916 69.1036 145.748 69.1036C146.412 69.1036 147.076 69.1608 147.74 69.2753C148.404 69.3898 148.942 69.5387 149.354 69.7219V68.8975C149.354 68.0044 149.068 67.3747 148.496 67.0083C147.946 66.619 147.076 66.4243 145.885 66.4243C145.038 66.4243 144.168 66.5274 143.275 66.7335C142.404 66.9396 141.706 67.2029 141.179 67.5235L141.008 63.6764C141.717 63.3329 142.553 63.0696 143.515 62.8864C144.5 62.6803 145.507 62.5772 146.538 62.5772C148.828 62.5772 150.579 63.0696 151.793 64.0543C153.03 65.016 153.648 66.5388 153.648 68.6227V78ZM149.354 74.4964V72.3324C149.034 72.1721 148.633 72.0462 148.152 71.9546C147.694 71.863 147.248 71.8172 146.813 71.8172C145.942 71.8172 145.278 71.9775 144.82 72.298C144.362 72.5957 144.133 73.0652 144.133 73.7064C144.133 74.3017 144.328 74.7368 144.717 75.0116C145.107 75.2635 145.679 75.3895 146.435 75.3895C146.961 75.3895 147.499 75.3093 148.049 75.149C148.599 74.9658 149.034 74.7483 149.354 74.4964ZM155.735 78V74.2559L163.12 66.6648H156.147V62.8864H168.341V66.6304L160.99 74.2216H168.753V78H155.735ZM173.205 55.9479C173.892 55.9479 174.453 56.1769 174.888 56.6349C175.323 57.0699 175.541 57.6195 175.541 58.2836C175.541 58.9706 175.323 59.5431 174.888 60.0011C174.453 60.4362 173.892 60.6537 173.205 60.6537C172.495 60.6537 171.9 60.4362 171.419 60.0011C170.961 59.5431 170.732 58.9706 170.732 58.2836C170.732 57.6195 170.961 57.0699 171.419 56.6349C171.9 56.1769 172.495 55.9479 173.205 55.9479ZM175.335 62.7833V78H170.938V62.9894L175.335 62.7833ZM192.532 78H188.135V68.9662C188.135 68.0731 187.918 67.4319 187.483 67.0426C187.048 66.6533 186.452 66.4587 185.697 66.4587C185.193 66.4587 184.677 66.5503 184.151 66.7335C183.624 66.8938 183.12 67.1228 182.639 67.4205V78H178.243V62.9894L182.639 62.7833V64.1917C183.372 63.6421 184.116 63.2413 184.872 62.9894C185.651 62.7146 186.464 62.5772 187.311 62.5772C188.891 62.5772 190.15 63.0238 191.089 63.9169C192.051 64.787 192.532 66.161 192.532 68.0388V78ZM209.526 62.3712L209.492 65.7717H207.225C207.454 66.0694 207.625 66.4129 207.74 66.8022C207.877 67.1686 207.946 67.5579 207.946 67.9701C207.946 69.5501 207.396 70.821 206.297 71.7828C205.198 72.7217 203.698 73.2369 201.797 73.3285L200.217 74.8742C200.492 74.8284 200.813 74.7941 201.179 74.7712C201.546 74.7254 201.912 74.7025 202.278 74.7025C202.645 74.6796 202.931 74.6681 203.137 74.6681C205.267 74.6681 206.893 75.0803 208.015 75.9047C209.16 76.7062 209.732 77.8741 209.732 79.4083C209.732 80.9197 209.102 82.1677 207.843 83.1524C206.606 84.1599 204.603 84.6637 201.832 84.6637C200.229 84.6637 198.729 84.5149 197.332 84.2172C195.958 83.9195 194.847 83.5188 194 83.015L194.344 79.2366C194.825 79.5801 195.477 79.8892 196.302 80.164C197.126 80.4388 198.042 80.6563 199.049 80.8166C200.08 80.9998 201.088 81.0914 202.072 81.0914C203.057 81.0914 203.801 81.0227 204.305 80.8853C204.809 80.7708 205.164 80.5876 205.37 80.3357C205.576 80.1067 205.679 79.8205 205.679 79.477C205.679 78.9503 205.416 78.5725 204.889 78.3435C204.385 78.1374 203.435 78.0343 202.038 78.0343C201.191 78.0343 200.286 78.0687 199.324 78.1374C198.362 78.2061 197.538 78.3206 196.851 78.4809V75.4238L199.29 73.1224C197.824 72.8476 196.691 72.2408 195.889 71.3019C195.088 70.363 194.687 69.2524 194.687 67.9701C194.687 66.8709 194.95 65.9206 195.477 65.1191C196.027 64.3176 196.794 63.6993 197.779 63.2642C198.786 62.8062 199.965 62.5772 201.317 62.5772C202.255 62.5772 203.126 62.7032 203.927 62.9551L209.526 62.3712ZM203.927 67.9701C203.927 67.2602 203.687 66.6762 203.206 66.2183C202.748 65.7603 202.118 65.5313 201.317 65.5313C200.492 65.5313 199.839 65.7603 199.359 66.2183C198.901 66.6762 198.672 67.2602 198.672 67.9701C198.672 68.657 198.901 69.2295 199.359 69.6875C199.839 70.1455 200.492 70.3745 201.317 70.3745C202.118 70.3745 202.748 70.157 203.206 69.7219C203.687 69.2639 203.927 68.6799 203.927 67.9701ZM236.657 78H231.78L230.062 73.0194H222.883L221.132 78H216.495L223.914 57.5966H229.238L236.657 78ZM228.895 69.4127L227.246 64.7756C227.085 64.3176 226.948 63.894 226.834 63.5047C226.742 63.0925 226.65 62.6803 226.559 62.2681H226.387C226.295 62.6803 226.192 63.0925 226.078 63.5047C225.986 63.894 225.86 64.3176 225.7 64.7756L224.017 69.4127H228.895ZM254.057 64.6038C254.057 66.1152 253.713 67.3976 253.026 68.4509C252.362 69.5043 251.389 70.2943 250.106 70.821C248.824 71.3477 247.278 71.6111 245.469 71.6111H243.065V78H238.496V57.5966H245.504C247.313 57.5966 248.847 57.8714 250.106 58.421C251.389 58.9706 252.362 59.7606 253.026 60.7911C253.713 61.8216 254.057 63.0925 254.057 64.6038ZM249.488 64.6038C249.488 63.8482 249.316 63.2299 248.973 62.749C248.652 62.2681 248.183 61.9132 247.565 61.6842C246.969 61.4552 246.248 61.3407 245.401 61.3407H243.065V67.867H245.401C246.248 67.867 246.969 67.7525 247.565 67.5235C248.183 67.2945 248.652 66.9396 248.973 66.4587C249.316 65.9778 249.488 65.3595 249.488 64.6038ZM261.104 57.5966V78H256.535V57.5966H261.104ZM53.1092 91.8864L48.6438 107H43.9723L42.1862 101.676C41.8656 100.577 41.6022 99.6951 41.3962 99.031C41.1901 98.344 41.0183 97.7143 40.8809 97.1418H40.7092C40.5947 97.7143 40.4229 98.344 40.1939 99.031C39.9878 99.6951 39.7245 100.577 39.4039 101.676L37.6178 107H32.9463L28.4809 91.9894L32.9119 91.7833L34.9385 98.9967C35.053 99.4775 35.1675 100.05 35.282 100.714C35.4194 101.355 35.5225 101.951 35.5912 102.5H35.7629C35.8316 101.951 35.9461 101.355 36.1064 100.714C36.2667 100.05 36.4155 99.4775 36.5529 98.9967L38.5452 93.0199H43.2167L45.2089 98.9967C45.3463 99.4775 45.4951 100.05 45.6554 100.714C45.8157 101.355 45.9302 101.951 45.9989 102.5H46.1707C46.2394 101.951 46.331 101.355 46.4455 100.714C46.5829 100.05 46.7088 99.4775 46.8233 98.9967L48.7812 91.8864H53.1092ZM64.4492 91.749L64.2775 95.9739C64.1401 95.9052 63.8997 95.8365 63.5562 95.7678C63.2356 95.6991 62.9264 95.6648 62.6287 95.6648C62.0105 95.6648 61.4036 95.7793 60.8082 96.0083C60.2358 96.2144 59.7091 96.5006 59.2282 96.867V107H54.8315V91.9894L59.2282 91.7833V93.5695C59.8923 92.8825 60.5678 92.3787 61.2548 92.0581C61.9647 91.7375 62.6974 91.5772 63.4531 91.5772C63.6134 91.5772 63.7852 91.5887 63.9684 91.6116C64.1744 91.6345 64.3347 91.6803 64.4492 91.749ZM79.1118 107H74.9555V105.832C74.4059 106.267 73.7418 106.622 72.9633 106.897C72.1847 107.172 71.326 107.309 70.3871 107.309C68.7154 107.309 67.4331 106.908 66.54 106.107C65.6698 105.305 65.2347 104.195 65.2347 102.775C65.2347 101.241 65.7728 100.084 66.8491 99.3058C67.9254 98.5043 69.3795 98.1036 71.2115 98.1036C71.8755 98.1036 72.5396 98.1608 73.2037 98.2753C73.8678 98.3898 74.4059 98.5387 74.8181 98.7219V97.8975C74.8181 97.0044 74.5319 96.3747 73.9594 96.0083C73.4098 95.619 72.5396 95.4243 71.3489 95.4243C70.5016 95.4243 69.6314 95.5274 68.7383 95.7335C67.8681 95.9396 67.1697 96.2029 66.643 96.5235L66.4713 92.6764C67.1812 92.3329 68.017 92.0696 68.9788 91.8864C69.9634 91.6803 70.971 91.5772 72.0015 91.5772C74.2914 91.5772 76.0432 92.0696 77.2569 93.0543C78.4935 94.016 79.1118 95.5388 79.1118 97.6227V107ZM74.8181 103.496V101.332C74.4975 101.172 74.0968 101.046 73.6159 100.955C73.1579 100.863 72.7114 100.817 72.2763 100.817C71.4061 100.817 70.742 100.977 70.284 101.298C69.826 101.596 69.597 102.065 69.597 102.706C69.597 103.302 69.7917 103.737 70.181 104.012C70.5703 104.264 71.1428 104.389 71.8984 104.389C72.4251 104.389 72.9633 104.309 73.5128 104.149C74.0624 103.966 74.4975 103.748 74.8181 103.496ZM97.0997 99.2714C97.0997 100.806 96.7676 102.18 96.1036 103.393C95.4624 104.607 94.5693 105.569 93.4243 106.279C92.3023 106.966 90.997 107.309 89.5085 107.309C88.2262 107.309 87.1842 107.103 86.3828 106.691V113.355H81.9861V91.9894L86.3828 91.7833V92.8825C86.9094 92.4474 87.4934 92.1268 88.1346 91.9207C88.7757 91.6917 89.5085 91.5772 90.3329 91.5772C91.5924 91.5772 92.7259 91.8864 93.7335 92.5047C94.7639 93.123 95.5769 94.0046 96.1723 95.1496C96.7905 96.2945 97.0997 97.6685 97.0997 99.2714ZM92.5656 99.4088C92.5656 98.5845 92.4282 97.8746 92.1534 97.2792C91.8786 96.6609 91.4664 96.1915 90.9168 95.8709C90.3902 95.5274 89.7261 95.3556 88.9246 95.3556C87.9399 95.3556 87.0926 95.619 86.3828 96.1457V103.119C86.6805 103.233 87.0239 103.336 87.4132 103.428C87.8254 103.496 88.2491 103.531 88.6842 103.531C89.4856 103.531 90.1726 103.37 90.7451 103.05C91.3176 102.706 91.7641 102.225 92.0847 101.607C92.4053 100.966 92.5656 100.233 92.5656 99.4088ZM114.199 99.2714C114.199 100.806 113.867 102.18 113.203 103.393C112.562 104.607 111.669 105.569 110.524 106.279C109.402 106.966 108.096 107.309 106.608 107.309C105.326 107.309 104.284 107.103 103.482 106.691V113.355H99.0855V91.9894L103.482 91.7833V92.8825C104.009 92.4474 104.593 92.1268 105.234 91.9207C105.875 91.6917 106.608 91.5772 107.432 91.5772C108.692 91.5772 109.825 91.8864 110.833 92.5047C111.863 93.123 112.676 94.0046 113.272 95.1496C113.89 96.2945 114.199 97.6685 114.199 99.2714ZM109.665 99.4088C109.665 98.5845 109.528 97.8746 109.253 97.2792C108.978 96.6609 108.566 96.1915 108.016 95.8709C107.49 95.5274 106.825 95.3556 106.024 95.3556C105.039 95.3556 104.192 95.619 103.482 96.1457V103.119C103.78 103.233 104.123 103.336 104.513 103.428C104.925 103.496 105.348 103.531 105.784 103.531C106.585 103.531 107.272 103.37 107.845 103.05C108.417 102.706 108.864 102.225 109.184 101.607C109.505 100.966 109.665 100.233 109.665 99.4088ZM129.581 100.508H119.895C120.032 101.126 120.307 101.664 120.719 102.122C121.154 102.558 121.704 102.89 122.368 103.119C123.055 103.348 123.856 103.462 124.772 103.462C125.551 103.462 126.387 103.359 127.28 103.153C128.173 102.924 128.906 102.638 129.478 102.294L129.65 106.038C129.054 106.45 128.253 106.771 127.245 107C126.261 107.206 125.333 107.309 124.463 107.309C122.517 107.309 120.845 106.989 119.448 106.347C118.074 105.683 117.032 104.756 116.322 103.565C115.635 102.374 115.292 100.977 115.292 99.3745C115.292 97.7944 115.612 96.4319 116.254 95.287C116.918 94.1191 117.822 93.2146 118.967 92.5734C120.135 91.9093 121.44 91.5772 122.883 91.5772C124.211 91.5772 125.39 91.8406 126.421 92.3673C127.474 92.894 128.287 93.6611 128.86 94.6687C129.455 95.6533 129.753 96.8441 129.753 98.241C129.753 98.5387 129.73 98.9051 129.684 99.3401C129.661 99.7523 129.627 100.142 129.581 100.508ZM122.917 94.7374C122.024 94.7374 121.291 95.0351 120.719 95.6304C120.169 96.2258 119.837 97.0159 119.723 98.0005H125.665C125.665 97.9547 125.665 97.886 125.665 97.7944C125.665 97.6799 125.665 97.5998 125.665 97.554C125.665 96.7067 125.413 96.0312 124.91 95.5274C124.429 95.0007 123.765 94.7374 122.917 94.7374ZM141.594 91.749L141.422 95.9739C141.285 95.9052 141.044 95.8365 140.701 95.7678C140.38 95.6991 140.071 95.6648 139.773 95.6648C139.155 95.6648 138.548 95.7793 137.953 96.0083C137.38 96.2144 136.854 96.5006 136.373 96.867V107H131.976V91.9894L136.373 91.7833V93.5695C137.037 92.8825 137.712 92.3787 138.399 92.0581C139.109 91.7375 139.842 91.5772 140.598 91.5772C140.758 91.5772 140.93 91.5887 141.113 91.6116C141.319 91.6345 141.479 91.6803 141.594 91.749ZM159.114 85.4631L158.942 89.2415C158.782 89.1728 158.564 89.127 158.29 89.1041C158.038 89.0812 157.797 89.0698 157.568 89.0698C156.744 89.0698 156.114 89.253 155.679 89.6193C155.244 89.9857 155.027 90.5926 155.027 91.4399V91.8864H158.771L158.461 95.6648H155.027V107H150.63V95.6648H148.569V91.8864H150.63V91.3712C150.63 89.356 151.214 87.8332 152.382 86.8027C153.55 85.7493 155.118 85.2227 157.087 85.2227C157.408 85.2227 157.763 85.2456 158.152 85.2914C158.542 85.3372 158.862 85.3944 159.114 85.4631ZM175.888 99.4432C175.888 100.955 175.533 102.306 174.823 103.496C174.136 104.687 173.174 105.626 171.938 106.313C170.701 106.977 169.293 107.309 167.713 107.309C166.133 107.309 164.724 106.977 163.488 106.313C162.251 105.626 161.278 104.687 160.568 103.496C159.881 102.306 159.538 100.955 159.538 99.4432C159.538 97.9089 159.881 96.5579 160.568 95.39C161.278 94.1992 162.251 93.2718 163.488 92.6077C164.724 91.9207 166.133 91.5772 167.713 91.5772C169.293 91.5772 170.701 91.9207 171.938 92.6077C173.174 93.2718 174.136 94.1992 174.823 95.39C175.533 96.5579 175.888 97.9089 175.888 99.4432ZM171.354 99.4432C171.354 98.6417 171.194 97.9433 170.873 97.3479C170.552 96.7296 170.117 96.2602 169.568 95.9396C169.018 95.5961 168.4 95.4243 167.713 95.4243C167.026 95.4243 166.408 95.5961 165.858 95.9396C165.308 96.2602 164.873 96.7296 164.553 97.3479C164.232 97.9433 164.072 98.6417 164.072 99.4432C164.072 100.245 164.232 100.955 164.553 101.573C164.873 102.168 165.308 102.638 165.858 102.981C166.431 103.302 167.049 103.462 167.713 103.462C168.423 103.462 169.052 103.302 169.602 102.981C170.152 102.638 170.575 102.168 170.873 101.573C171.194 100.955 171.354 100.245 171.354 99.4432ZM187.483 91.749L187.312 95.9739C187.174 95.9052 186.934 95.8365 186.59 95.7678C186.27 95.6991 185.961 95.6648 185.663 95.6648C185.045 95.6648 184.438 95.7793 183.842 96.0083C183.27 96.2144 182.743 96.5006 182.262 96.867V107H177.866V91.9894L182.262 91.7833V93.5695C182.926 92.8825 183.602 92.3787 184.289 92.0581C184.999 91.7375 185.732 91.5772 186.487 91.5772C186.648 91.5772 186.819 91.5887 187.003 91.6116C187.209 91.6345 187.369 91.6803 187.483 91.749Z" fill="white"/>
<path d="M209.641 86.5966L209.297 90.6498H200.573V94.7374H207.752V98.6875H200.573V102.947H209.813V107H196.004V86.5966H209.641ZM226.21 85.2227V107H221.813V106.073C220.714 106.897 219.42 107.309 217.932 107.309C216.695 107.309 215.55 107 214.497 106.382C213.466 105.763 212.642 104.882 212.024 103.737C211.405 102.569 211.096 101.195 211.096 99.6149C211.096 97.9891 211.405 96.5808 212.024 95.39C212.665 94.1763 213.558 93.2375 214.703 92.5734C215.871 91.9093 217.233 91.5772 218.791 91.5772C219.34 91.5772 219.878 91.623 220.405 91.7146C220.932 91.8062 221.401 91.9436 221.813 92.1268V85.4288L226.21 85.2227ZM221.813 95.8022C221.538 95.6877 221.184 95.5846 220.748 95.493C220.313 95.4014 219.89 95.3556 219.478 95.3556C218.699 95.3556 218.012 95.5274 217.417 95.8709C216.844 96.1915 216.398 96.6609 216.077 97.2792C215.779 97.8975 215.63 98.6303 215.63 99.4775C215.63 100.302 215.768 101.023 216.043 101.642C216.317 102.237 216.718 102.706 217.245 103.05C217.794 103.37 218.424 103.531 219.134 103.531C220.165 103.531 221.058 103.267 221.813 102.741V95.8022ZM243.241 91.7833V107H238.844V105.729C238.134 106.279 237.413 106.679 236.68 106.931C235.947 107.183 235.157 107.309 234.31 107.309C232.753 107.309 231.493 106.874 230.531 106.004C229.57 105.111 229.089 103.725 229.089 101.848V91.9894L233.486 91.7833V100.92C233.486 101.813 233.703 102.454 234.138 102.844C234.573 103.233 235.169 103.428 235.924 103.428C236.428 103.428 236.932 103.348 237.436 103.187C237.939 103.004 238.409 102.775 238.844 102.5V91.9894L243.241 91.7833ZM258.246 92.9169L257.284 96.9014C256.895 96.5121 256.379 96.1915 255.738 95.9396C255.097 95.6877 254.433 95.5617 253.746 95.5617C252.99 95.5617 252.303 95.722 251.685 96.0426C251.09 96.3403 250.62 96.7754 250.277 97.3479C249.956 97.9204 249.796 98.6074 249.796 99.4088C249.796 100.233 249.967 100.943 250.311 101.538C250.654 102.134 251.147 102.58 251.788 102.878C252.452 103.176 253.219 103.325 254.089 103.325C254.868 103.325 255.601 103.21 256.288 102.981C256.998 102.752 257.627 102.454 258.177 102.088L258.349 106.004C257.707 106.393 256.975 106.714 256.15 106.966C255.326 107.195 254.398 107.309 253.368 107.309C251.925 107.309 250.586 107 249.349 106.382C248.113 105.763 247.116 104.87 246.361 103.702C245.628 102.512 245.262 101.081 245.262 99.4088C245.262 97.8975 245.617 96.5579 246.326 95.39C247.036 94.1992 247.998 93.2718 249.212 92.6077C250.425 91.9207 251.777 91.5772 253.265 91.5772C254.364 91.5772 255.326 91.7032 256.15 91.9551C256.998 92.1841 257.696 92.5047 258.246 92.9169ZM273.32 107H269.164V105.832C268.614 106.267 267.95 106.622 267.171 106.897C266.393 107.172 265.534 107.309 264.595 107.309C262.923 107.309 261.641 106.908 260.748 106.107C259.878 105.305 259.443 104.195 259.443 102.775C259.443 101.241 259.981 100.084 261.057 99.3058C262.133 98.5043 263.588 98.1036 265.419 98.1036C266.084 98.1036 266.748 98.1608 267.412 98.2753C268.076 98.3898 268.614 98.5387 269.026 98.7219V97.8975C269.026 97.0044 268.74 96.3747 268.167 96.0083C267.618 95.619 266.748 95.4243 265.557 95.4243C264.71 95.4243 263.839 95.5274 262.946 95.7335C262.076 95.9396 261.378 96.2029 260.851 96.5235L260.679 92.6764C261.389 92.3329 262.225 92.0696 263.187 91.8864C264.171 91.6803 265.179 91.5772 266.209 91.5772C268.499 91.5772 270.251 92.0696 271.465 93.0543C272.701 94.016 273.32 95.5388 273.32 97.6227V107ZM269.026 103.496V101.332C268.706 101.172 268.305 101.046 267.824 100.955C267.366 100.863 266.919 100.817 266.484 100.817C265.614 100.817 264.95 100.977 264.492 101.298C264.034 101.596 263.805 102.065 263.805 102.706C263.805 103.302 264 103.737 264.389 104.012C264.778 104.264 265.351 104.389 266.106 104.389C266.633 104.389 267.171 104.309 267.721 104.149C268.27 103.966 268.706 103.748 269.026 103.496ZM285.812 91.749L285.64 95.9739C285.503 95.9052 285.262 95.8365 284.919 95.7678C284.598 95.6991 284.289 95.6648 283.991 95.6648C283.373 95.6648 282.766 95.7793 282.171 96.0083C281.598 96.2144 281.072 96.5006 280.591 96.867V107H276.194V91.9894L280.591 91.7833V93.5695C281.255 92.8825 281.93 92.3787 282.617 92.0581C283.327 91.7375 284.06 91.5772 284.816 91.5772C284.976 91.5772 285.148 91.5887 285.331 91.6116C285.537 91.6345 285.697 91.6803 285.812 91.749ZM296.971 91.8864L296.662 95.6648H292.643V101.401C292.643 102.157 292.826 102.695 293.192 103.016C293.559 103.313 294.097 103.462 294.807 103.462C295.196 103.462 295.562 103.405 295.906 103.29C296.272 103.153 296.581 102.993 296.833 102.809L297.005 106.519C296.204 107.046 295.116 107.309 293.742 107.309C291.841 107.309 290.456 106.84 289.586 105.901C288.716 104.962 288.28 103.622 288.28 101.882V95.6648H286.219V91.8864H288.28V88.7263L292.643 87.7988V91.8864H296.971ZM312.005 107H307.849V105.832C307.3 106.267 306.636 106.622 305.857 106.897C305.078 107.172 304.22 107.309 303.281 107.309C301.609 107.309 300.327 106.908 299.434 106.107C298.563 105.305 298.128 104.195 298.128 102.775C298.128 101.241 298.667 100.084 299.743 99.3058C300.819 98.5043 302.273 98.1036 304.105 98.1036C304.769 98.1036 305.433 98.1608 306.097 98.2753C306.761 98.3898 307.3 98.5387 307.712 98.7219V97.8975C307.712 97.0044 307.426 96.3747 306.853 96.0083C306.303 95.619 305.433 95.4243 304.243 95.4243C303.395 95.4243 302.525 95.5274 301.632 95.7335C300.762 95.9396 300.063 96.2029 299.537 96.5235L299.365 92.6764C300.075 92.3329 300.911 92.0696 301.872 91.8864C302.857 91.6803 303.865 91.5772 304.895 91.5772C307.185 91.5772 308.937 92.0696 310.151 93.0543C311.387 94.016 312.005 95.5388 312.005 97.6227V107ZM307.712 103.496V101.332C307.391 101.172 306.99 101.046 306.51 100.955C306.052 100.863 305.605 100.817 305.17 100.817C304.3 100.817 303.636 100.977 303.178 101.298C302.72 101.596 302.491 102.065 302.491 102.706C302.491 103.302 302.685 103.737 303.075 104.012C303.464 104.264 304.036 104.389 304.792 104.389C305.319 104.389 305.857 104.309 306.407 104.149C306.956 103.966 307.391 103.748 307.712 103.496ZM329.993 99.2028C329.993 100.806 329.65 102.225 328.963 103.462C328.276 104.676 327.291 105.626 326.009 106.313C324.727 106.977 323.192 107.309 321.406 107.309C320.17 107.309 318.99 107.183 317.868 106.931C316.746 106.657 315.75 106.313 314.88 105.901V85.4288L319.276 85.2227V92.8138C319.895 92.3787 320.513 92.0696 321.131 91.8864C321.772 91.6803 322.471 91.5772 323.227 91.5772C324.509 91.5772 325.654 91.8864 326.662 92.5047C327.692 93.123 328.505 94.0046 329.1 95.1496C329.696 96.2716 329.993 97.6227 329.993 99.2028ZM325.459 99.4088C325.459 98.5845 325.322 97.8746 325.047 97.2792C324.772 96.6609 324.36 96.1915 323.811 95.8709C323.284 95.5274 322.62 95.3556 321.818 95.3556C320.834 95.3556 319.986 95.619 319.276 96.1457V103.119C319.574 103.233 319.918 103.336 320.307 103.428C320.719 103.496 321.143 103.531 321.578 103.531C322.379 103.531 323.066 103.37 323.639 103.05C324.211 102.706 324.658 102.225 324.978 101.607C325.299 100.966 325.459 100.233 325.459 99.4088ZM336.376 85.2227V107H331.979V85.4288L336.376 85.2227ZM352.68 100.508H342.993C343.131 101.126 343.406 101.664 343.818 102.122C344.253 102.558 344.803 102.89 345.467 103.119C346.154 103.348 346.955 103.462 347.871 103.462C348.65 103.462 349.485 103.359 350.379 103.153C351.272 102.924 352.004 102.638 352.577 102.294L352.749 106.038C352.153 106.45 351.352 106.771 350.344 107C349.359 107.206 348.432 107.309 347.562 107.309C345.615 107.309 343.944 106.989 342.547 106.347C341.173 105.683 340.131 104.756 339.421 103.565C338.734 102.374 338.391 100.977 338.391 99.3745C338.391 97.7944 338.711 96.4319 339.352 95.287C340.017 94.1191 340.921 93.2146 342.066 92.5734C343.234 91.9093 344.539 91.5772 345.982 91.5772C347.31 91.5772 348.489 91.8406 349.52 92.3673C350.573 92.894 351.386 93.6611 351.959 94.6687C352.554 95.6533 352.852 96.8441 352.852 98.241C352.852 98.5387 352.829 98.9051 352.783 99.3401C352.76 99.7523 352.726 100.142 352.68 100.508ZM346.016 94.7374C345.123 94.7374 344.39 95.0351 343.818 95.6304C343.268 96.2258 342.936 97.0159 342.822 98.0005H348.764C348.764 97.9547 348.764 97.886 348.764 97.7944C348.764 97.6799 348.764 97.5998 348.764 97.554C348.764 96.7067 348.512 96.0312 348.008 95.5274C347.528 95.0007 346.863 94.7374 346.016 94.7374Z" fill="#A0EFFF"/>
<g style="mix-blend-mode:overlay">
<path fill-rule="evenodd" clip-rule="evenodd" d="M477.798 -3.92365L379 -3.92364V-55L477.798 -55L477.798 -3.92365L529.11 -3.92364V94.7405L477.798 95.3454L477.798 47.5157C451.624 47.9714 430.547 69.211 430.547 95.3454H379C379 40.9038 423.155 -3.46485 477.798 -3.92365Z" fill="#A0EFFF"/>
<path fill-rule="evenodd" clip-rule="evenodd" d="M580.893 94.9329L679.691 94.9293V146.187H580.893V94.9293L529.111 94.7407V-3.92344L580.893 -3.92344V43.6713C607.067 43.2156 628.127 22.211 628.127 -3.92344H679.221C679.221 50.5181 635.536 94.4705 580.893 94.9293V94.9329Z" fill="#06B5D8" fill-opacity="0.5"/>
<path fill-rule="evenodd" clip-rule="evenodd" d="M778.489 47.0959L679.221 47.0959V-3.92334L778.489 -3.92334V47.0995L830.036 47.0995V146.187H778.489V98.3574C752.315 98.8132 731.238 120.053 731.238 146.187H679.691C679.691 91.7456 723.845 47.5583 778.489 47.0995V47.0959Z" fill="#A0EFFF" fill-opacity="0.7"/>
</g>
</g>
<rect x="0.5" y="0.5" width="829" height="134" rx="13.5" stroke="url(#paint2_linear_375_6860)" style="mix-blend-mode:overlay"/>
<rect x="0.5" y="0.5" width="829" height="134" rx="13.5" stroke="url(#paint3_linear_375_6860)" stroke-opacity="0.1"/>
<rect x="0.5" y="0.5" width="829" height="134" rx="13.5" stroke="white" stroke-opacity="0.1"/>
<defs>
<radialGradient id="paint0_radial_375_6860" cx="0" cy="0" r="1" gradientUnits="userSpaceOnUse" gradientTransform="translate(9.4458e-07 165.586) rotate(17.7974) scale(413.385 308.037)">
<stop offset="0.100613" stop-color="#A0EFFF" stop-opacity="0"/>
<stop offset="0.515" stop-color="#00D5FF"/>
<stop offset="1" stop-color="#00D5FF" stop-opacity="0.35"/>
</radialGradient>
<radialGradient id="paint1_radial_375_6860" cx="0" cy="0" r="1" gradientUnits="userSpaceOnUse" gradientTransform="translate(1075 -132) rotate(110.154) scale(458.578 1768.11)">
<stop stop-color="#2B9BB1" stop-opacity="0"/>
<stop offset="0.285" stop-color="#2B9BB1"/>
<stop offset="1" stop-color="#2B9BB1" stop-opacity="0.184314"/>
</radialGradient>
<linearGradient id="paint2_linear_375_6860" x1="415" y1="0" x2="415" y2="135" gradientUnits="userSpaceOnUse">
<stop stop-color="white" stop-opacity="0.6"/>
<stop offset="0.5" stop-color="white" stop-opacity="0"/>
<stop offset="1" stop-color="white"/>
</linearGradient>
<linearGradient id="paint3_linear_375_6860" x1="415" y1="0" x2="415" y2="135" gradientUnits="userSpaceOnUse">
<stop stop-color="white" stop-opacity="0.6"/>
<stop offset="0.5" stop-color="white" stop-opacity="0"/>
<stop offset="1" stop-color="white"/>
</linearGradient>
<clipPath id="clip0_375_6860">
<rect width="830" height="135" rx="14" fill="white"/>
</clipPath>
</defs>
</svg>
